<svg width="1408" height="1000" viewBox="0 0 1408 1000" fill="none" xmlns="http://www.w3.org/2000/svg">
<path opacity="0.3" d="M818.061 164.88C727.797 161.549 641.828 130.632 559.736 96.798C477.645 62.9644 396.335 25.4752 308.232 7.55199C251.566 -3.97747 186.755 -5.60552 141.106 26.6148C97.1598 57.6955 82.9619 111.199 75.3329 160.898C69.5868 198.284 66.2116 237.623 81.9437 272.626C92.8781 296.928 112.264 317.353 125.681 340.634C172.361 421.621 139.363 521.494 88.7917 600.572C65.0819 637.676 37.5368 673.094 19.2246 712.551C0.912279 752.009 -7.55348 797.283 8.4715 837.57C24.3431 877.531 62.181 907.487 103.171 928.577C186.42 971.409 284.481 983.679 380.17 990.62C591.926 1006 804.797 999.337 1017.11 992.677C1095.69 990.206 1174.6 987.704 1251.89 974.813C1294.82 967.65 1339.13 956.283 1370.3 928.932C1409.86 894.107 1419.66 835.128 1393.15 791.467C1348.68 718.22 1225.78 700.03 1194.67 621.411C1177.57 578.149 1195.13 529.945 1220 489.821C1273.33 403.742 1362.72 328.216 1367.42 229.823C1370.65 162.23 1327.68 94.5484 1261.24 62.5796C1191.6 29.0569 1095.02 33.275 1043.67 88.7614C990.737 145.832 897.767 167.81 818.061 164.88Z" fill="url(#paint0_linear)"/>
<path d="M782.97 253.194C790.486 269.189 774.559 273.72 756.315 282.293C738.07 290.866 724.417 300.236 716.901 284.24C709.385 268.245 703.286 236.498 729.096 224.369C755.795 211.823 775.454 237.199 782.97 253.194Z" fill="#2F2E41"/>
<path d="M745.746 284.65C759.311 284.65 770.307 273.654 770.307 260.089C770.307 246.524 759.311 235.528 745.746 235.528C732.182 235.528 721.185 246.524 721.185 260.089C721.185 273.654 732.182 284.65 745.746 284.65Z" fill="#FFB8B8"/>
<path d="M867.426 369.012C866.576 367.902 865.726 366.812 864.866 365.752C863.756 364.372 862.64 363.036 861.516 361.742C848.786 347.052 835.246 337.802 820.336 336.812H820.316L820.096 336.792L790.386 365.752L780.286 375.592L780.506 376.132L785.956 389.702H881.446C877.144 382.562 872.464 375.655 867.426 369.012Z" fill="#2F2E41"/>
<path d="M719.038 269.977L727.83 265.846L726.605 253.162L732.484 263.659L736.686 261.684L735.972 254.285L739.402 260.408L770.626 245.736C767.693 239.495 762.402 234.674 755.915 232.335C749.428 229.996 742.278 230.329 736.037 233.262L731.512 235.388C725.271 238.321 720.45 243.613 718.111 250.099C715.772 256.586 716.105 263.736 719.038 269.977Z" fill="#2F2E41"/>
<path d="M922.526 715.8H409.688C405.313 715.795 401.119 714.055 398.026 710.962C394.932 707.869 393.192 703.675 393.188 699.3V391.146C393.191 387.941 394.466 384.869 396.732 382.603C398.998 380.336 402.071 379.062 405.275 379.058H926.729C929.989 379.062 933.115 380.358 935.42 382.664C937.726 384.969 939.022 388.095 939.026 391.355V699.3C939.021 703.675 937.281 707.869 934.188 710.962C931.094 714.055 926.901 715.795 922.526 715.8Z" fill="#F2F2F2"/>
<path d="M425.688 699.3H906.526C910.77 699.3 914.839 697.614 917.84 694.614C920.84 691.613 922.526 687.544 922.526 683.3V421.752C922.526 417.509 920.84 413.439 917.84 410.438C914.839 407.438 910.77 405.752 906.526 405.752H425.688C421.444 405.752 417.374 407.438 414.374 410.438C411.373 413.439 409.688 417.509 409.688 421.752V683.3C409.688 687.544 411.373 691.613 414.374 694.614C417.374 697.614 421.444 699.3 425.688 699.3Z" fill="white"/>
<path d="M938.796 390.203H392.956V381.802C392.962 377.413 394.709 373.206 397.814 370.103C400.919 367.001 405.127 365.256 409.516 365.252H922.236C926.625 365.256 930.834 367.001 933.938 370.103C937.043 373.206 938.79 377.413 938.796 381.802V390.203Z" fill="#6C63FF"/>
<path d="M423.051 382.036C425.417 382.036 427.335 380.118 427.335 377.752C427.335 375.387 425.417 373.469 423.051 373.469C420.686 373.469 418.768 375.387 418.768 377.752C418.768 380.118 420.686 382.036 423.051 382.036Z" fill="white"/>
<path d="M439.31 382.036C441.676 382.036 443.594 380.118 443.594 377.752C443.594 375.387 441.676 373.469 439.31 373.469C436.945 373.469 435.027 375.387 435.027 377.752C435.027 380.118 436.945 382.036 439.31 382.036Z" fill="white"/>
<path d="M455.569 382.036C457.935 382.036 459.852 380.118 459.852 377.752C459.852 375.387 457.935 373.469 455.569 373.469C453.203 373.469 451.286 375.387 451.286 377.752C451.286 380.118 453.203 382.036 455.569 382.036Z" fill="white"/>
<path d="M681.11 642.579H638.11C635.592 642.576 633.177 641.574 631.396 639.793C629.615 638.012 628.613 635.598 628.61 633.079V590.079C628.613 587.56 629.615 585.146 631.396 583.365C633.177 581.584 635.592 580.582 638.11 580.579H681.11C683.629 580.582 686.044 581.584 687.825 583.365C689.606 585.146 690.607 587.56 690.61 590.079V633.079C690.607 635.598 689.606 638.012 687.825 639.793C686.044 641.574 683.629 642.576 681.11 642.579ZM638.11 582.579C636.122 582.581 634.215 583.372 632.809 584.778C631.403 586.184 630.613 588.091 630.61 590.079V633.079C630.613 635.068 631.403 636.974 632.809 638.38C634.215 639.786 636.122 640.577 638.11 640.579H681.11C683.099 640.577 685.005 639.786 686.411 638.38C687.817 636.974 688.608 635.068 688.61 633.079V590.079C688.608 588.091 687.817 586.184 686.411 584.778C685.005 583.372 683.099 582.581 681.11 582.579H638.11Z" fill="#CCCCCC"/>
<path d="M672.61 630.579H646.61C645.815 630.578 645.052 630.262 644.49 629.699C643.928 629.137 643.611 628.374 643.61 627.579V595.579C643.611 594.784 643.928 594.021 644.49 593.459C645.052 592.896 645.815 592.58 646.61 592.579H665.45C666.133 592.58 666.796 592.813 667.329 593.241L674.489 598.995C674.84 599.275 675.123 599.631 675.317 600.036C675.511 600.441 675.611 600.884 675.61 601.333V627.579C675.609 628.374 675.293 629.137 674.731 629.699C674.168 630.262 673.406 630.578 672.61 630.579ZM646.61 594.579C646.345 594.579 646.091 594.685 645.904 594.872C645.716 595.06 645.611 595.314 645.61 595.579V627.579C645.611 627.844 645.716 628.098 645.904 628.286C646.091 628.473 646.345 628.579 646.61 628.579H672.61C672.875 628.579 673.13 628.473 673.317 628.286C673.505 628.098 673.61 627.844 673.61 627.579V601.333C673.611 601.183 673.577 601.036 673.513 600.901C673.448 600.766 673.354 600.647 673.237 600.554L666.076 594.799C665.898 594.657 665.677 594.579 665.45 594.579H646.61Z" fill="#CCCCCC"/>
<path d="M667.61 606.579H651.61C651.345 606.579 651.091 606.474 650.903 606.286C650.716 606.099 650.61 605.844 650.61 605.579C650.61 605.314 650.716 605.06 650.903 604.872C651.091 604.684 651.345 604.579 651.61 604.579H667.61C667.876 604.579 668.13 604.684 668.317 604.872C668.505 605.06 668.61 605.314 668.61 605.579C668.61 605.844 668.505 606.099 668.317 606.286C668.13 606.474 667.876 606.579 667.61 606.579Z" fill="#CCCCCC"/>
<path d="M667.61 612.579H651.61C651.345 612.579 651.091 612.474 650.903 612.286C650.716 612.099 650.61 611.844 650.61 611.579C650.61 611.314 650.716 611.06 650.903 610.872C651.091 610.684 651.345 610.579 651.61 610.579H667.61C667.876 610.579 668.13 610.684 668.317 610.872C668.505 611.06 668.61 611.314 668.61 611.579C668.61 611.844 668.505 612.099 668.317 612.286C668.13 612.474 667.876 612.579 667.61 612.579Z" fill="#CCCCCC"/>
<path d="M667.61 618.579H651.61C651.345 618.579 651.091 618.474 650.903 618.286C650.716 618.099 650.61 617.844 650.61 617.579C650.61 617.314 650.716 617.06 650.903 616.872C651.091 616.684 651.345 616.579 651.61 616.579H667.61C667.876 616.579 668.13 616.684 668.317 616.872C668.505 617.06 668.61 617.314 668.61 617.579C668.61 617.844 668.505 618.099 668.317 618.286C668.13 618.474 667.876 618.579 667.61 618.579Z" fill="#CCCCCC"/>
<path d="M783.11 642.579H740.11C737.592 642.576 735.177 641.574 733.396 639.793C731.615 638.012 730.613 635.598 730.61 633.079V590.079C730.613 587.56 731.615 585.146 733.396 583.365C735.177 581.584 737.592 580.582 740.11 580.579H783.11C785.629 580.582 788.044 581.584 789.825 583.365C791.606 585.146 792.607 587.56 792.61 590.079V633.079C792.607 635.598 791.606 638.012 789.825 639.793C788.044 641.574 785.629 642.576 783.11 642.579ZM740.11 582.579C738.122 582.581 736.215 583.372 734.809 584.778C733.403 586.184 732.613 588.091 732.61 590.079V633.079C732.613 635.068 733.403 636.974 734.809 638.38C736.215 639.786 738.122 640.577 740.11 640.579H783.11C785.099 640.577 787.005 639.786 788.411 638.38C789.817 636.974 790.608 635.068 790.61 633.079V590.079C790.608 588.091 789.817 586.184 788.411 584.778C787.005 583.372 785.099 582.581 783.11 582.579H740.11Z" fill="#CCCCCC"/>
<path d="M775.61 622.579H747.61C746.815 622.578 746.052 622.262 745.49 621.699C744.928 621.137 744.611 620.374 744.61 619.579V603.579C744.611 602.784 744.928 602.021 745.49 601.459C746.052 600.896 746.815 600.58 747.61 600.579H775.61C776.406 600.58 777.168 600.896 777.731 601.459C778.293 602.021 778.609 602.784 778.61 603.579V619.579C778.609 620.374 778.293 621.137 777.731 621.699C777.168 622.262 776.406 622.578 775.61 622.579ZM747.61 602.579C747.345 602.579 747.091 602.685 746.904 602.872C746.716 603.06 746.611 603.314 746.61 603.579V619.579C746.611 619.844 746.716 620.098 746.904 620.286C747.091 620.473 747.345 620.579 747.61 620.579H775.61C775.875 620.579 776.13 620.473 776.317 620.286C776.505 620.098 776.61 619.844 776.61 619.579V603.579C776.61 603.314 776.505 603.06 776.317 602.872C776.13 602.685 775.875 602.579 775.61 602.579H747.61Z" fill="#CCCCCC"/>
<path d="M761.61 614.217C761.048 614.218 760.498 614.061 760.02 613.765L745.08 604.427C744.856 604.286 744.696 604.062 744.637 603.804C744.578 603.546 744.623 603.275 744.764 603.05C744.904 602.825 745.128 602.665 745.386 602.606C745.644 602.546 745.916 602.591 746.14 602.731L761.081 612.068C761.24 612.167 761.423 612.219 761.611 612.219C761.798 612.219 761.981 612.167 762.14 612.068L777.08 602.731C777.305 602.591 777.576 602.546 777.834 602.606C778.092 602.665 778.316 602.825 778.457 603.05C778.597 603.275 778.643 603.546 778.583 603.804C778.524 604.062 778.365 604.286 778.14 604.427L763.201 613.765C762.724 614.061 762.172 614.218 761.61 614.217Z" fill="#CCCCCC"/>
<path d="M579.11 642.579H536.11C533.592 642.576 531.177 641.574 529.396 639.793C527.615 638.012 526.613 635.598 526.61 633.079V590.079C526.613 587.56 527.615 585.146 529.396 583.365C531.177 581.584 533.592 580.582 536.11 580.579H579.11C581.629 580.582 584.044 581.584 585.825 583.365C587.606 585.146 588.607 587.56 588.61 590.079V633.079C588.607 635.598 587.606 638.012 585.825 639.793C584.044 641.574 581.629 642.576 579.11 642.579ZM536.11 582.579C534.122 582.581 532.216 583.372 530.81 584.778C529.403 586.184 528.613 588.091 528.61 590.079V633.079C528.613 635.068 529.403 636.974 530.81 638.38C532.216 639.786 534.122 640.577 536.11 640.579H579.11C581.099 640.577 583.005 639.786 584.411 638.38C585.817 636.974 586.608 635.068 586.61 633.079V590.079C586.608 588.091 585.817 586.184 584.411 584.778C583.005 583.372 581.099 582.581 579.11 582.579H536.11Z" fill="#CCCCCC"/>
<path d="M571.61 622.579H543.61C542.815 622.578 542.052 622.262 541.49 621.699C540.928 621.137 540.611 620.374 540.61 619.579V603.579C540.611 602.784 540.928 602.021 541.49 601.459C542.052 600.896 542.815 600.58 543.61 600.579H571.61C572.406 600.58 573.168 600.896 573.731 601.459C574.293 602.021 574.609 602.784 574.61 603.579V619.579C574.609 620.374 574.293 621.137 573.731 621.699C573.168 622.262 572.406 622.578 571.61 622.579ZM543.61 602.579C543.345 602.579 543.091 602.685 542.904 602.872C542.716 603.06 542.611 603.314 542.61 603.579V619.579C542.611 619.844 542.716 620.098 542.904 620.286C543.091 620.473 543.345 620.579 543.61 620.579H571.61C571.875 620.579 572.13 620.473 572.317 620.286C572.505 620.098 572.61 619.844 572.61 619.579V603.579C572.61 603.314 572.505 603.06 572.317 602.872C572.13 602.685 571.875 602.579 571.61 602.579H543.61Z" fill="#CCCCCC"/>
<path d="M567.172 622.579H547.048C546.697 622.579 546.352 622.487 546.048 622.311C545.744 622.136 545.491 621.883 545.316 621.579C545.14 621.275 545.048 620.93 545.048 620.579C545.048 620.228 545.141 619.883 545.316 619.579L551.378 609.079C551.553 608.775 551.806 608.523 552.11 608.347C552.414 608.172 552.759 608.079 553.11 608.079C553.461 608.079 553.806 608.172 554.11 608.347C554.414 608.523 554.667 608.775 554.842 609.079L558.757 615.86L561.025 611.932C561.201 611.628 561.453 611.375 561.757 611.2C562.061 611.024 562.406 610.932 562.757 610.932C563.109 610.932 563.453 611.024 563.758 611.2C564.062 611.375 564.314 611.628 564.49 611.932L568.905 619.579C569.08 619.883 569.173 620.228 569.173 620.579C569.173 620.93 569.08 621.275 568.905 621.579C568.729 621.883 568.476 622.136 568.172 622.311C567.868 622.487 567.523 622.579 567.172 622.579H567.172ZM567.172 620.579L562.757 612.932L559.624 618.36C559.536 618.512 559.409 618.639 559.257 618.726C559.105 618.814 558.933 618.86 558.757 618.86C558.582 618.86 558.409 618.814 558.257 618.726C558.105 618.639 557.979 618.512 557.891 618.36L553.11 610.079L547.048 620.579H567.172Z" fill="#CCCCCC"/>
<path d="M568.61 608.579C569.715 608.579 570.61 607.683 570.61 606.579C570.61 605.474 569.715 604.579 568.61 604.579C567.506 604.579 566.61 605.474 566.61 606.579C566.61 607.683 567.506 608.579 568.61 608.579Z" fill="#CCCCCC"/>
<path d="M1046.82 869.15L1034.56 869.149L1028.73 821.861L1046.83 821.862L1046.82 869.15Z" fill="#FFB8B8"/>
<path d="M1049.95 881.034L1010.42 881.032V880.532C1010.42 878.512 1010.82 876.511 1011.59 874.644C1012.37 872.778 1013.5 871.081 1014.93 869.653C1016.36 868.224 1018.05 867.091 1019.92 866.317C1021.79 865.544 1023.79 865.146 1025.81 865.146H1025.81L1049.95 865.147L1049.95 881.034Z" fill="#2F2E41"/>
<path d="M1096.82 869.15L1084.56 869.149L1078.73 821.861L1096.83 821.862L1096.82 869.15Z" fill="#FFB8B8"/>
<path d="M1099.95 881.034L1060.42 881.032V880.532C1060.42 878.512 1060.82 876.511 1061.59 874.644C1062.37 872.778 1063.5 871.081 1064.93 869.653C1066.36 868.224 1068.05 867.091 1069.92 866.317C1071.79 865.544 1073.79 865.146 1075.81 865.146H1075.81L1099.95 865.147L1099.95 881.034Z" fill="#2F2E41"/>
<path d="M1093.15 848.65L1081.8 845.196C1080.95 844.94 1080.2 844.439 1079.63 843.758C1079.07 843.076 1078.72 842.243 1078.63 841.363L1068.04 741.037C1068.04 740.916 1067.98 740.802 1067.89 740.719C1067.8 740.636 1067.69 740.59 1067.57 740.59C1067.44 740.578 1067.32 740.614 1067.23 740.691C1067.13 740.767 1067.07 740.878 1067.05 740.999L1049.32 838.198C1049.22 838.788 1048.99 839.35 1048.66 839.852C1048.34 840.354 1047.91 840.785 1047.41 841.12C1046.92 841.456 1046.36 841.688 1045.77 841.805C1045.18 841.921 1044.58 841.919 1043.99 841.798L1029.48 838.809C1028.41 838.586 1027.47 837.987 1026.81 837.121C1026.15 836.256 1025.83 835.182 1025.9 834.097L1036.68 674.784L1109.82 666.893L1098.95 844.619C1098.88 845.762 1098.38 846.835 1097.54 847.62C1096.71 848.405 1095.61 848.844 1094.47 848.847C1094.02 848.847 1093.58 848.78 1093.15 848.65Z" fill="#2F2E41"/>
<path d="M1093.08 536.048C1106.65 536.048 1117.64 525.051 1117.64 511.487C1117.64 497.922 1106.65 486.926 1093.08 486.926C1079.52 486.926 1068.52 497.922 1068.52 511.487C1068.52 525.051 1079.52 536.048 1093.08 536.048Z" fill="#FFB8B8"/>
<path d="M1036.57 675.72L1052.43 575.869C1053.27 570.56 1055.23 565.491 1058.19 561C1061.14 556.51 1065.02 552.699 1069.56 549.824C1074.1 546.948 1079.2 545.072 1084.53 544.321C1089.85 543.57 1095.27 543.962 1100.43 545.469C1109.45 548.078 1117.18 553.957 1122.1 561.957C1127.02 569.957 1128.78 579.503 1127.03 588.731L1110.44 677.903L1036.57 675.72Z" fill="#6C63FF"/>
<path d="M1099.86 693.586C1101.09 692.776 1102.12 691.706 1102.89 690.453C1103.66 689.201 1104.14 687.794 1104.31 686.334C1104.48 684.873 1104.32 683.394 1103.85 682C1103.39 680.606 1102.62 679.331 1101.61 678.266L1118 646.514L1099.54 648.485L1086.8 678.334C1085.12 680.155 1084.17 682.527 1084.13 685.002C1084.08 687.476 1084.95 689.881 1086.56 691.761C1088.17 693.641 1090.41 694.865 1092.86 695.202C1095.31 695.538 1097.8 694.963 1099.86 693.586V693.586Z" fill="#FFB8B8"/>
<path d="M1103.37 672.665C1102.46 672.537 1101.62 672.136 1100.95 671.514L1094.67 665.718C1093.99 665.088 1093.53 664.266 1093.33 663.362C1093.14 662.458 1093.22 661.516 1093.58 660.663L1106.12 630.945L1104.34 572.225C1104.59 570.338 1105.22 568.519 1106.18 566.873C1107.14 565.227 1108.41 563.787 1109.93 562.633C1111.44 561.48 1113.17 560.637 1115.01 560.152C1116.86 559.667 1118.78 559.55 1120.66 559.808C1122.55 560.065 1124.37 560.692 1126.01 561.653C1127.66 562.613 1129.1 563.888 1130.25 565.406C1131.4 566.923 1132.24 568.652 1132.73 570.495C1133.21 572.337 1133.33 574.257 1133.07 576.144L1136.11 613.056C1137.03 624.259 1133.86 635.417 1127.17 644.453L1107.62 670.885C1107.24 671.393 1106.76 671.817 1106.21 672.127C1105.66 672.438 1105.05 672.63 1104.42 672.689C1104.07 672.723 1103.72 672.715 1103.37 672.665Z" fill="#6C63FF"/>
<path d="M951.641 498.105C951.908 499.551 952.49 500.92 953.344 502.117C954.198 503.313 955.304 504.308 956.584 505.031C957.864 505.754 959.287 506.187 960.753 506.3C962.219 506.414 963.691 506.205 965.067 505.687L987.913 533.165L993.298 515.394L970.778 492.024C969.755 489.77 967.942 487.97 965.68 486.963C963.419 485.957 960.867 485.815 958.508 486.565C956.149 487.314 954.147 488.903 952.882 491.03C951.616 493.157 951.174 495.674 951.641 498.105Z" fill="#FFB8B8"/>
<path d="M969.537 509.495C970.008 508.71 970.708 508.087 971.543 507.709L979.327 504.193C980.17 503.814 981.11 503.703 982.018 503.876C982.927 504.049 983.76 504.496 984.406 505.158L1006.88 528.29L1061.65 549.547C1063.29 550.518 1064.72 551.803 1065.86 553.327C1067.01 554.852 1067.84 556.587 1068.31 558.433C1068.78 560.279 1068.88 562.2 1068.61 564.085C1068.34 565.971 1067.7 567.785 1066.72 569.422C1065.75 571.06 1064.46 572.49 1062.94 573.631C1061.41 574.771 1059.68 575.599 1057.83 576.068C1055.98 576.537 1054.06 576.638 1052.18 576.364C1050.29 576.09 1048.48 575.447 1046.84 574.472L1011.67 562.881C1000.99 559.364 991.952 552.089 986.238 542.409L969.52 514.099C969.199 513.554 968.996 512.948 968.925 512.32C968.853 511.692 968.915 511.056 969.105 510.453C969.211 510.118 969.356 509.796 969.537 509.495Z" fill="#6C63FF"/>
<path opacity="0.1" d="M1113 596.652L1112 628.652L1093.58 660.663L1108.96 624.99L1113 596.652Z" fill="black"/>
<path d="M1090.27 516.103C1088.72 516.303 1087.16 515.937 1085.87 515.072C1084.57 514.207 1083.64 512.903 1083.24 511.4C1082.85 509.671 1081.99 508.081 1080.77 506.8C1079.54 505.518 1077.99 504.594 1076.29 504.127C1071.78 503.097 1066.27 505.218 1062.97 501.805C1062.26 501.025 1061.75 500.089 1061.48 499.073C1061.21 498.057 1061.18 496.991 1061.4 495.962C1062 492.645 1064.38 490.139 1066.96 488.135C1072.39 483.936 1078.97 481.479 1085.83 481.084C1089.37 480.981 1092.93 481.158 1096.45 481.612C1100.13 481.845 1103.78 482.511 1107.31 483.598C1111.33 485.116 1114.91 487.623 1117.7 490.888C1120.5 494.153 1122.43 498.07 1123.31 502.278C1124.12 506.499 1123.99 510.844 1122.95 515.012C1121.9 519.18 1119.96 523.069 1117.25 526.408C1114.02 530.44 1109.84 533.619 1105.09 535.667C1103.96 536.201 1102.67 536.267 1101.49 535.85C1098.53 534.674 1099.01 531.011 1100.36 528.567C1101.81 525.953 1104.03 523.421 1102.87 520.239C1102.28 518.763 1101.17 517.561 1099.74 516.873C1096.8 515.373 1093.51 515.728 1090.35 516.093L1090.27 516.103Z" fill="#2F2E41"/>
<path d="M943.433 529.973H639.433C635.059 529.968 630.865 528.228 627.772 525.134C624.678 522.041 622.938 517.847 622.933 513.473V448.473C622.938 444.098 624.678 439.904 627.772 436.811C630.865 433.718 635.059 431.978 639.433 431.973H943.433C947.808 431.978 952.002 433.718 955.095 436.811C958.188 439.904 959.928 444.098 959.933 448.473V513.473C959.928 517.847 958.188 522.041 955.095 525.134C952.002 528.228 947.808 529.968 943.433 529.973Z" fill="white"/>
<path d="M943.433 530.473H639.433C634.926 530.468 630.605 528.675 627.418 525.488C624.231 522.301 622.438 517.98 622.433 513.473V448.473C622.438 443.966 624.231 439.644 627.418 436.457C630.605 433.27 634.926 431.478 639.433 431.473H943.433C947.94 431.478 952.261 433.27 955.448 436.457C958.635 439.644 960.428 443.966 960.433 448.473V513.473C960.428 517.98 958.635 522.301 955.448 525.488C952.261 528.675 947.94 530.468 943.433 530.473ZM639.433 433.473C635.456 433.477 631.644 435.059 628.831 437.871C626.019 440.683 624.438 444.496 624.433 448.473V513.473C624.438 517.45 626.019 521.262 628.831 524.074C631.644 526.886 635.456 528.468 639.433 528.473H943.433C947.41 528.468 951.223 526.886 954.035 524.074C956.847 521.262 958.429 517.45 958.433 513.473V448.473C958.429 444.496 956.847 440.683 954.035 437.871C951.223 435.059 947.41 433.477 943.433 433.473H639.433Z" fill="#3F3D56"/>
<path d="M906.433 513.973H676.433C672.059 513.968 667.865 512.228 664.771 509.134C661.678 506.041 659.938 501.847 659.933 497.473V463.473C659.938 459.098 661.678 454.904 664.771 451.811C667.865 448.718 672.059 446.978 676.433 446.973H906.433C910.808 446.978 915.002 448.718 918.095 451.811C921.188 454.904 922.928 459.098 922.933 463.473V497.473C922.928 501.847 921.188 506.041 918.095 509.134C915.002 512.228 910.808 513.968 906.433 513.973Z" fill="#F2F2F2"/>
<path d="M725.928 495.647C736.826 495.647 745.66 486.813 745.66 475.915C745.66 465.017 736.826 456.183 725.928 456.183C715.03 456.183 706.196 465.017 706.196 475.915C706.196 486.813 715.03 495.647 725.928 495.647Z" fill="#FF6584"/>
<path d="M892.14 511.981L864.287 488.622L836.916 465.665C836.194 465.06 835.28 464.728 834.338 464.73C833.395 464.732 832.483 465.067 831.763 465.675L804.48 488.737L797.816 494.37L787.767 485.943L757.23 460.332C756.508 459.726 755.595 459.395 754.652 459.397C753.71 459.399 752.798 459.734 752.078 460.342L721.64 486.07L690.723 512.204C690.566 512.336 690.454 512.514 690.402 512.712C690.349 512.91 690.359 513.12 690.43 513.312C690.5 513.505 690.629 513.671 690.797 513.788C690.965 513.905 691.165 513.968 691.37 513.968L754.757 513.845L774.821 513.807L774.625 513.973L834.432 513.858L891.499 513.748C891.704 513.747 891.905 513.684 892.072 513.566C892.24 513.448 892.368 513.282 892.438 513.089C892.508 512.896 892.517 512.686 892.463 512.488C892.41 512.29 892.297 512.113 892.14 511.981Z" fill="#3F3D56"/>
<path d="M1153.27 882.473H961.271C961.006 882.473 960.752 882.367 960.564 882.18C960.377 881.992 960.271 881.738 960.271 881.473C960.271 881.207 960.377 880.953 960.564 880.766C960.752 880.578 961.006 880.473 961.271 880.473H1153.27C1153.54 880.473 1153.79 880.578 1153.98 880.766C1154.17 880.953 1154.27 881.207 1154.27 881.473C1154.27 881.738 1154.17 881.992 1153.98 882.18C1153.79 882.367 1153.54 882.473 1153.27 882.473Z" fill="#CCCCCC"/>
<path d="M882.056 352.912C881.257 351.614 880.203 350.493 878.956 349.616C877.71 348.739 876.298 348.126 874.806 347.812C874.26 347.697 873.705 347.627 873.147 347.602L796.956 279.482C795.46 277.944 793.463 276.99 791.326 276.792C790.905 276.744 790.48 276.731 790.056 276.752C788.298 276.832 786.602 277.423 785.174 278.451C783.746 279.48 782.649 280.902 782.017 282.544C781.385 284.187 781.245 285.978 781.614 287.698C781.983 289.419 782.846 290.994 784.096 292.232L813.266 317.662L861.166 359.412C861.205 360.199 861.323 360.979 861.516 361.742C862.09 363.953 863.321 365.938 865.048 367.432C866.775 368.927 868.916 369.862 871.186 370.112C873.257 370.354 875.354 370.008 877.236 369.112C878.729 368.414 880.053 367.401 881.116 366.142C881.226 366.012 881.326 365.892 881.426 365.752C882.825 363.93 883.634 361.725 883.747 359.431C883.859 357.137 883.269 354.863 882.056 352.912H882.056Z" fill="#FFB8B8"/>
<path d="M751.736 418.562L751.026 389.702L750.426 365.752L750.016 348.992L749.206 316.322C749.046 314.573 748.38 312.909 747.289 311.532C746.199 310.155 744.731 309.125 743.065 308.568C741.399 308.011 739.607 307.952 737.908 308.397C736.209 308.841 734.676 309.771 733.496 311.072C733.218 311.37 732.967 311.691 732.746 312.032C731.515 313.796 730.961 315.944 731.186 318.082L732.966 365.752L733.856 389.702L734.996 420.252C734.667 420.701 734.37 421.172 734.106 421.662C733.395 423.011 732.965 424.49 732.843 426.009C732.721 427.529 732.91 429.058 733.396 430.502C733.904 432.017 734.728 433.408 735.812 434.582C736.896 435.755 738.217 436.686 739.687 437.312C741.157 437.939 742.743 438.247 744.341 438.216C745.938 438.185 747.511 437.815 748.956 437.132C750.634 436.339 752.091 435.145 753.197 433.655C754.304 432.165 755.027 430.425 755.302 428.589C755.577 426.754 755.395 424.879 754.773 423.13C754.151 421.381 753.108 419.812 751.736 418.562H751.736Z" fill="#FFB8B8"/>
<path d="M820.336 336.812L813.266 317.662L801.826 286.642C801.001 284.385 799.678 282.343 797.955 280.667C796.233 278.992 794.155 277.725 791.876 276.962C791.696 276.902 791.506 276.842 791.326 276.792C789.119 276.122 786.792 275.938 784.507 276.252C782.222 276.566 780.031 277.371 778.086 278.612L739.556 303.052C736.028 305.285 733.505 308.803 732.522 312.861C731.538 316.92 732.171 321.202 734.286 324.802C739.105 333.134 744.355 341.208 750.016 348.992C754.506 355.102 762.866 355.752 764.316 365.752H792.726L821.486 339.932L820.336 336.812Z" fill="#CCCCCC"/>
<path d="M379.165 570.854C391.962 570.854 402.336 560.48 402.336 547.682C402.336 534.885 391.962 524.511 379.165 524.511C366.367 524.511 355.993 534.885 355.993 547.682C355.993 560.48 366.367 570.854 379.165 570.854Z" fill="#A0616A"/>
<path d="M436.051 531.732C436.28 531.914 436.501 532.106 436.715 532.31C437.78 533.313 438.62 534.529 439.182 535.879C439.743 537.23 440.013 538.683 439.974 540.145C439.935 541.607 439.587 543.044 438.953 544.362C438.32 545.68 437.415 546.85 436.298 547.794C436.038 548.012 435.766 548.217 435.484 548.407L437.053 601.352C437.097 603.085 436.582 604.787 435.583 606.204C434.584 607.621 433.155 608.678 431.508 609.219L431.412 609.24L388.423 613.818C387.255 613.942 386.073 613.833 384.946 613.498C383.82 613.163 382.771 612.609 381.86 611.866C380.949 611.123 380.194 610.207 379.639 609.172C379.084 608.136 378.739 607 378.626 605.83C378.512 604.66 378.631 603.479 378.976 602.356C379.321 601.232 379.885 600.188 380.636 599.284C381.387 598.38 382.31 597.633 383.351 597.088C384.392 596.542 385.53 596.208 386.701 596.105L417.345 593.406L422.645 547.555C422.298 547.248 421.974 546.917 421.673 546.565C420.012 544.598 419.14 542.084 419.228 539.511C419.316 536.938 420.357 534.49 422.149 532.641C423.941 530.792 426.356 529.676 428.925 529.508C431.494 529.34 434.034 530.133 436.051 531.732H436.051Z" fill="#A0616A"/>
<path d="M417.328 870.174H428.895L434.397 825.561H417.326L417.328 870.174Z" fill="#A0616A"/>
<path d="M414.378 866.398L437.156 866.397H437.157C439.063 866.397 440.951 866.772 442.712 867.502C444.473 868.231 446.074 869.301 447.422 870.648C448.77 871.996 449.839 873.597 450.568 875.358C451.298 877.119 451.673 879.007 451.673 880.913V881.385L414.379 881.386L414.378 866.398Z" fill="#2F2E41"/>
<path d="M302.366 854.182L312.304 860.099L339.857 824.582L325.189 815.849L302.366 854.182Z" fill="#A0616A"/>
<path d="M301.763 849.428L321.335 861.081L321.335 861.082C322.973 862.057 324.403 863.345 325.543 864.873C326.683 866.401 327.511 868.138 327.98 869.986C328.448 871.834 328.548 873.756 328.274 875.642C328 877.529 327.357 879.343 326.381 880.981L326.14 881.386L294.095 862.307L301.763 849.428Z" fill="#2F2E41"/>
<path d="M431.624 854.417H418.672C417.624 854.418 416.611 854.031 415.832 853.33C415.052 852.628 414.56 851.663 414.451 850.62L401.394 727.882C401.361 727.573 401.227 727.284 401.013 727.058C400.799 726.833 400.517 726.684 400.211 726.635C399.904 726.586 399.589 726.639 399.316 726.786C399.042 726.933 398.824 727.166 398.696 727.449L375.141 779.608L333.437 847.611C332.898 848.483 332.062 849.131 331.083 849.437C330.105 849.743 329.049 849.686 328.109 849.277L311.448 841.947C310.897 841.704 310.404 841.347 310.002 840.9C309.599 840.452 309.297 839.924 309.114 839.351C308.931 838.777 308.872 838.171 308.941 837.574C309.01 836.976 309.205 836.399 309.514 835.882L347.851 771.69L359.608 717.605C355.91 694.15 371.763 659.279 371.924 658.929L372.003 658.759L415.67 641.691L415.889 641.959C433.11 698.473 443.604 759.291 435.856 850.527C435.76 851.585 435.274 852.57 434.491 853.289C433.709 854.008 432.687 854.41 431.624 854.417Z" fill="#2F2E41"/>
<path d="M370.243 664.474L370.04 664.046C369.943 663.842 360.233 643.362 352.748 621.475C351.309 617.242 350.766 612.757 351.151 608.303C351.536 603.849 352.842 599.524 354.986 595.601C357.158 591.638 360.13 588.169 363.713 585.414C367.295 582.659 371.411 580.678 375.799 579.597V579.597C383.417 577.771 391.437 578.743 398.399 582.335C405.361 585.927 410.8 591.9 413.727 599.167C419.664 614.014 417.772 629.861 415.991 642.324L415.956 642.574L415.729 642.682L370.243 664.474Z" fill="#3F3D56"/>
<path d="M407.26 534.593H370.466V518.555C378.542 515.346 386.444 512.618 391.221 518.555C395.475 518.555 399.554 520.244 402.562 523.252C405.57 526.26 407.26 530.339 407.26 534.593V534.593Z" fill="#2F2E41"/>
<path d="M368.429 515.725C346.433 515.725 340.276 543.296 340.276 558.85C340.276 567.525 344.199 570.627 350.363 571.677L352.54 560.066L357.64 572.177C359.371 572.185 361.19 572.152 363.076 572.117L364.805 568.557L368.66 572.053C384.101 572.076 396.581 574.327 396.581 558.85C396.581 543.296 391.182 515.725 368.429 515.725Z" fill="#2F2E41"/>
<path d="M471 882.473H279C278.735 882.473 278.48 882.367 278.293 882.18C278.105 881.992 278 881.738 278 881.473C278 881.207 278.105 880.953 278.293 880.766C278.48 880.578 278.735 880.473 279 880.473H471C471.265 880.473 471.52 880.578 471.707 880.766C471.895 880.953 472 881.207 472 881.473C472 881.738 471.895 881.992 471.707 882.18C471.52 882.367 471.265 882.473 471 882.473Z" fill="#CCCCCC"/>
<path d="M474.61 553.473H431.61C429.092 553.47 426.677 552.468 424.896 550.687C423.115 548.906 422.113 546.491 422.11 543.973V500.973C422.113 498.454 423.115 496.039 424.896 494.258C426.677 492.477 429.092 491.476 431.61 491.473H474.61C477.129 491.476 479.544 492.477 481.325 494.258C483.106 496.039 484.107 498.454 484.11 500.973V543.973C484.107 546.491 483.106 548.906 481.325 550.687C479.544 552.468 477.129 553.47 474.61 553.473Z" fill="white"/>
<path d="M474.61 553.473H431.61C429.092 553.47 426.677 552.468 424.896 550.687C423.115 548.906 422.113 546.491 422.11 543.973V500.973C422.113 498.454 423.115 496.039 424.896 494.258C426.677 492.477 429.092 491.476 431.61 491.473H474.61C477.129 491.476 479.544 492.477 481.325 494.258C483.106 496.039 484.107 498.454 484.11 500.973V543.973C484.107 546.491 483.106 548.906 481.325 550.687C479.544 552.468 477.129 553.47 474.61 553.473ZM431.61 493.473C429.622 493.475 427.716 494.266 426.31 495.672C424.903 497.078 424.113 498.984 424.11 500.973V543.973C424.113 545.961 424.903 547.867 426.31 549.274C427.716 550.68 429.622 551.47 431.61 551.473H474.61C476.599 551.47 478.505 550.68 479.911 549.274C481.317 547.867 482.108 545.961 482.11 543.973V500.973C482.108 498.984 481.317 497.078 479.911 495.672C478.505 494.266 476.599 493.475 474.61 493.473H431.61Z" fill="#3F3D56"/>
<path d="M467.11 535.973H439.11C438.315 535.972 437.552 535.655 436.99 535.093C436.428 534.531 436.111 533.768 436.11 532.973V511.973C436.111 511.177 436.428 510.415 436.99 509.852C437.552 509.29 438.315 508.974 439.11 508.973H446.993C447.505 508.971 448.01 509.101 448.457 509.351C448.905 509.601 449.281 509.962 449.548 510.4L451.746 513.973H467.11C467.906 513.974 468.668 514.29 469.231 514.852C469.793 515.415 470.109 516.177 470.11 516.973V532.973C470.109 533.768 469.793 534.531 469.231 535.093C468.668 535.655 467.906 535.972 467.11 535.973Z" fill="#6C63FF"/>
<path d="M466.199 546.582C466.339 546.838 466.469 547.102 466.587 547.372C467.179 548.71 467.482 550.157 467.475 551.619C467.469 553.082 467.154 554.526 466.55 555.858C465.947 557.19 465.068 558.38 463.973 559.349C462.878 560.318 461.59 561.044 460.194 561.481C459.87 561.581 459.54 561.664 459.206 561.73L440.107 611.135C439.476 612.75 438.34 614.118 436.87 615.037C435.399 615.955 433.672 616.375 431.944 616.234L431.848 616.216L390.451 603.754C389.326 603.415 388.278 602.856 387.37 602.111C386.461 601.365 385.71 600.446 385.158 599.408C384.607 598.37 384.266 597.233 384.157 596.063C384.047 594.893 384.17 593.712 384.52 592.59C384.869 591.468 385.437 590.425 386.191 589.524C386.945 588.622 387.87 587.879 388.913 587.337C389.956 586.795 391.096 586.465 392.268 586.366C393.439 586.267 394.618 586.401 395.737 586.761L425.027 596.164L447.704 555.963C447.503 555.545 447.333 555.115 447.193 554.673C446.424 552.216 446.597 549.561 447.676 547.224C448.756 544.887 450.665 543.034 453.034 542.025C455.403 541.017 458.062 540.925 460.495 541.767C462.928 542.609 464.961 544.325 466.199 546.582H466.199Z" fill="#A0616A"/>
<defs>
<linearGradient id="paint0_linear" x1="1320" y1="116" x2="264" y2="868" gradientUnits="userSpaceOnUse">
<stop offset="0.092" stop-color="#6C63FF"/>
<stop offset="1" stop-color="#CD63FF" stop-opacity="0.28"/>
</linearGradient>
</defs>
</svg>
