<svg width="92" height="92" viewBox="0 0 92 92" fill="none" xmlns="http://www.w3.org/2000/svg">
<path d="M46.0184 91.9633C20.6234 91.9633 0.0367432 71.3766 0.0367432 45.9816C0.0367432 20.5867 20.6234 0 46.0184 0C71.4133 0 92 20.5867 92 45.9816C92 71.3766 71.4133 91.9633 46.0184 91.9633Z" fill="#3F3D56"/>
<path opacity="0.1" d="M45.977 5.74977e-06C55.0769 -0.00454307 63.9737 2.69003 71.5419 7.74283C79.11 12.7956 85.0096 19.9796 88.494 28.386C91.9785 36.7923 92.8914 46.0433 91.1172 54.9686C89.343 63.8938 84.9615 72.0924 78.5269 78.527C72.0923 84.9616 63.8938 89.3431 54.9685 91.1173C46.0432 92.8915 36.7922 91.9786 28.3859 88.4941C19.9795 85.0096 12.7955 79.1101 7.74275 71.5419C2.68995 63.9738 -0.00462341 55.0769 -7.62939e-05 45.977C0.00601959 33.785 4.85197 22.0942 13.473 13.4731C22.0941 4.85207 33.785 0.00610023 45.977 5.74977e-06ZM45.977 85.8453C53.8622 85.8453 61.5703 83.507 68.1266 79.1263C74.6828 74.7455 79.7929 68.5189 82.8104 61.234C85.8279 53.949 86.6175 45.9328 85.0791 38.1991C83.5408 30.4655 79.7437 23.3616 74.168 17.7859C68.5924 12.2103 61.4885 8.41319 53.7549 6.87487C46.0212 5.33654 38.005 6.12608 30.7201 9.14361C23.4351 12.1611 17.2085 17.2711 12.8277 23.8274C8.44696 30.3837 6.10872 38.0919 6.10872 45.977C6.10872 51.2126 7.13996 56.3969 9.14352 61.234C11.1471 66.071 14.0837 70.466 17.7859 74.1681C21.488 77.8702 25.883 80.8069 30.7201 82.8105C35.5571 84.814 40.7414 85.8453 45.977 85.8453Z" fill="black"/>
<path d="M26.4635 57.6572C28.0643 56.0564 31.9145 53.6414 33.8235 52.7398C36.0269 51.6818 36.8365 51.7002 38.3959 52.8272C39.6931 53.7472 40.5349 54.635 42.0253 54.3084C43.5157 53.9818 46.4689 51.7554 49.3255 48.908C52.1821 46.0606 54.3993 43.1258 54.7167 41.6124C55.0341 40.099 54.1601 39.2756 53.2309 37.9784C52.1085 36.419 52.0763 35.6094 53.1435 33.406C54.0635 31.497 56.4509 27.656 58.0655 26.046C59.6801 24.436 60.0297 24.7902 60.9129 25.126C61.8219 25.507 62.6948 25.9689 63.5211 26.506C65.1219 27.5778 66.0189 28.4702 66.6491 29.8134C67.2793 31.1566 67.9923 33.6498 64.3261 40.1772C61.6216 45.1707 58.1961 49.7384 54.1601 53.7334C50.1515 57.7786 45.5681 61.2104 40.5579 63.9178C34.0351 67.5978 31.5373 66.8664 30.1941 66.2408C28.8509 65.6152 27.9585 64.7274 26.8913 63.1128C26.3531 62.2871 25.8912 61.4141 25.5113 60.5046C25.2077 59.6214 24.8489 59.2626 26.4635 57.6572Z" fill="#6C63FF"/>
</svg>
