<svg width="1535" height="772" viewBox="0 0 1535 772" fill="none" xmlns="http://www.w3.org/2000/svg">
<path d="M1437.9 693.555C1082 795.613 502.165 800.653 110.275 693.555C-281.615 586.457 496.944 434 496.944 434L1056.79 434C1056.79 434 1793.8 591.497 1437.9 693.555Z" fill="url(#paint0_linear)"/>
<g filter="url(#filter0_d)">
<rect x="400.87" y="27" width="825.32" height="386" fill="#F2F2F2"/>
<path d="M1226.18 0H400.867V26.257H1226.18V0Z" fill="#3F3D56"/>
<path d="M422.952 19.537C426.705 19.537 429.748 16.4945 429.748 12.7415C429.748 8.98848 426.705 5.94604 422.952 5.94604C419.199 5.94604 416.157 8.98848 416.157 12.7415C416.157 16.4945 419.199 19.537 422.952 19.537Z" fill="#CAC7F6"/>
<path d="M445.038 19.537C448.791 19.537 451.833 16.4945 451.833 12.7415C451.833 8.98848 448.791 5.94604 445.038 5.94604C441.284 5.94604 438.242 8.98848 438.242 12.7415C438.242 16.4945 441.284 19.537 445.038 19.537Z" fill="#CAC7F6"/>
<path d="M467.123 19.537C470.876 19.537 473.918 16.4945 473.918 12.7415C473.918 8.98848 470.876 5.94604 467.123 5.94604C463.37 5.94604 460.327 8.98848 460.327 12.7415C460.327 16.4945 463.37 19.537 467.123 19.537Z" fill="#CAC7F6"/>
<path d="M401.452 415.277L400.867 415.779V592.903H1226.18V281.779L1216.35 282.525L401.452 415.277Z" fill="#3F3D56"/>
<path d="M690.899 175.641H460.428V184.934H690.899V175.641Z" fill="#3F3D56"/>
<path d="M690.899 196.086H460.428V205.379H690.899V196.086Z" fill="#3F3D56"/>
<path d="M538.491 216.531H460.428V225.824H538.491V216.531Z" fill="#3F3D56"/>
<path d="M1160.9 433.641H930.428V442.934H1160.9V433.641Z" fill="#F2F2F2"/>
<path d="M1160.9 454.086H930.428V463.379H1160.9V454.086Z" fill="#F2F2F2"/>
<path d="M1008.49 474.531H930.428V483.824H1008.49V474.531Z" fill="#F2F2F2"/>
<path d="M614.491 282.014H536.428V299.824H614.491V282.014Z" fill="#3F3D56"/>
<path d="M1078.49 523.014H1000.43V540.824H1078.49V523.014Z" fill="#F2F2F2"/>
<path d="M315.822 109.361L338.047 110.223L339.155 81.6473L316.93 80.7854L315.822 109.361Z" fill="#6C63FF"/>
<path d="M417.189 180.864C417.189 180.864 447.968 166.158 447.476 178.859C446.983 191.559 416.451 199.915 416.451 199.915L417.189 180.864Z" fill="#FFB9B9"/>
<path d="M400.303 288.325C400.303 288.325 414.824 323.866 420.189 349.513C425.554 375.16 433.725 410.455 423.215 435.487C412.705 460.518 382.823 534.086 382.515 542.024C382.207 549.962 385.075 558.022 378.725 557.776C372.374 557.53 337.818 546.65 336.415 541.826C335.012 537.002 348.205 524.794 348.205 524.794L380.782 422.712L346.793 356.207L322.276 455.422L317.474 579.25C317.474 579.25 293.908 571.976 290.486 578.203C290.486 578.203 279.927 563.485 278.586 557.073C277.245 550.661 283.573 428.482 283.573 428.482C283.573 428.482 261.94 289.319 279.403 289.996C296.866 290.673 365.267 248.808 400.303 288.325Z" fill="#2F2E41"/>
<path d="M378.971 551.426C378.971 551.426 395.079 587.029 396.605 588.678C398.131 590.327 408.629 606.634 400.691 606.326C392.753 606.018 374.01 597.342 360.215 584.087C346.42 570.833 328.231 547.868 329.88 546.342C331.529 544.816 342.827 540.485 342.827 540.485L378.971 551.426Z" fill="#2F2E41"/>
<path d="M314.607 571.189C314.607 571.189 315.579 587.126 318.508 593.599C321.437 600.073 321.068 609.598 313.13 609.29C305.192 608.982 284.677 605.007 284.677 605.007C284.677 605.007 283.459 595.42 285.108 593.894C286.757 592.368 293.785 575.151 290.794 570.266C287.804 565.38 314.607 571.189 314.607 571.189Z" fill="#2F2E41"/>
<path d="M302.864 54.0061C302.864 54.0061 285.942 80.3787 279.346 86.4827C272.749 92.5866 291.307 106.026 291.307 106.026L324.522 110.494C324.522 110.494 324.105 80.2686 325.815 77.1551C327.526 74.0416 302.864 54.0061 302.864 54.0061Z" fill="#FFB9B9"/>
<path d="M331.734 88.5142C331.734 88.5142 324.892 100.968 318.542 100.722C312.191 100.476 279.346 86.4827 277.943 81.6585C276.54 76.8343 267.063 116.215 267.063 116.215L347.435 257.656L367.039 244.107L357.54 161.062L349.738 116.241L331.734 88.5142Z" fill="#6C63FF"/>
<path d="M274.978 215.098C278.184 221.804 280.187 228.798 279.909 235.958C279.897 236.276 279.884 236.593 279.856 236.91C279.095 251.603 273.683 268.596 271.741 280.954C270.332 289.819 270.733 296.29 275.92 297.811C288.498 301.478 274.087 304.099 322.746 320.296C371.406 336.492 379.898 322.512 380.021 319.337C380.144 316.162 373.13 292.041 374.779 290.515C376.428 288.989 397.853 310.489 404.327 307.56C410.8 304.631 405.066 288.509 405.066 288.509C405.066 288.509 390.483 254.555 390.791 246.618C391.099 238.68 368.701 201.243 368.701 201.243L353.468 102.076C353.468 102.076 347.61 89.1298 339.734 87.2345C331.858 85.3391 325.323 89.8555 325.323 89.8555L338.503 118.985L352.408 170.402L350.082 189.391C350.082 189.391 333.912 155.376 323.291 142.244C312.671 129.113 290.027 98.0264 290.027 98.0264C290.027 98.0264 284.741 80.189 288.732 74.8585C292.723 69.5122 272.085 68.7119 263.285 90.6297C258.622 102.246 251.05 119.569 246.306 135.698C242.079 149.986 240.083 163.344 244.27 170.979C250.671 182.643 266.77 197.974 274.978 215.098Z" fill="#575A89"/>
<path opacity="0.1" d="M244.27 170.979C250.671 182.643 266.77 197.974 274.978 215.098C277.122 207.374 279.737 199.383 279.737 199.383C279.737 199.383 289.768 145.714 260.097 131.844C255.181 131.369 250.264 132.743 246.306 135.698C242.079 149.986 240.083 163.344 244.27 170.979Z" fill="black"/>
<path d="M362.056 167.597L387.211 174.932L422.137 176.286L425.73 206.634L368.332 210.768C368.332 210.768 353.996 170.464 362.056 167.597Z" fill="#575A89"/>
<path d="M321.039 269.636C321.039 269.636 354.69 275.219 347.01 285.346C339.329 295.473 309.518 284.826 309.518 284.826L321.039 269.636Z" fill="#FFB9B9"/>
<path opacity="0.1" d="M279.856 236.91C279.095 251.603 273.683 268.596 271.741 280.954C282.461 291.1 292.655 300.05 296.497 300.199C304.435 300.506 317.197 299.411 321.898 301.184C326.599 302.956 329.356 272.854 329.356 272.854C329.356 272.854 326.55 263.206 314.035 257.951C305.587 254.395 289.394 244.752 279.856 236.91Z" fill="black"/>
<path d="M260.467 122.319C260.467 122.319 233.602 118.097 235.053 162.672C236.504 207.246 232.221 235.699 243.026 244.067C253.831 252.436 288.929 290.365 296.866 290.673C304.804 290.981 317.566 289.886 322.267 291.658C326.968 293.431 329.725 263.329 329.725 263.329C329.725 263.329 326.92 253.68 314.404 248.425C301.888 243.17 272.402 224.537 272.648 218.187C272.895 211.837 280.107 189.858 280.107 189.858C280.107 189.858 290.137 136.189 260.467 122.319Z" fill="#575A89"/>
<path d="M326.554 93.0568C345.858 93.0568 361.506 77.4082 361.506 58.1046C361.506 38.8011 345.858 23.1524 326.554 23.1524C307.25 23.1524 291.602 38.8011 291.602 58.1046C291.602 77.4082 307.25 93.0568 326.554 93.0568Z" fill="#FFB9B9"/>
<path d="M350.088 8.00793C350.931 8.73428 351.941 9.24091 353.027 9.4827C353.572 9.57991 354.134 9.45745 354.589 9.14205C355.045 8.82665 355.357 8.34392 355.457 7.79925C356.257 9.45766 357.159 11.2252 358.792 12.0761C360.425 12.9271 362.949 12.2136 363.185 10.3875C363.423 11.774 364.036 13.0687 364.958 14.1314C365.971 15.0973 367.808 15.341 368.693 14.2562C367.978 18.1637 368.419 22.1821 368.194 26.1481C367.97 30.1141 366.912 34.3186 363.916 36.9265C359.546 40.7298 352.975 39.7911 347.227 39.0706C346.357 38.8882 345.455 38.9375 344.611 39.2136C342.459 40.1306 342.557 43.1268 342.528 45.4661C342.352 49.5707 340.727 53.4802 337.943 56.5005C335.158 59.5208 331.392 61.4564 327.315 61.9636C325.034 62.3157 322.706 61.7476 320.843 60.3839C319.211 59.0006 318.377 56.7459 316.507 55.7067C313.465 54.0163 309.776 56.4816 307.551 59.1583C305.327 61.835 303.135 65.1276 299.69 65.6176C295.133 66.2656 291.662 61.6216 289.959 57.3454C287.61 51.352 286.484 44.9489 286.649 38.5136C286.814 32.0783 288.265 25.7411 290.918 19.8756C300.433 -0.865423 332.936 -4.14604 350.088 8.00793Z" fill="#2F2E41"/>
<path d="M1189.12 563.77C1201.43 584.762 1226.26 593.073 1226.26 593.073C1226.26 593.073 1231.13 567.349 1218.82 546.356C1206.51 525.364 1181.68 517.053 1181.68 517.053C1181.68 517.053 1176.81 542.777 1189.12 563.77Z" fill="#F2F2F2"/>
<path d="M1196.8 556.443C1218.09 568.233 1227.01 592.848 1227.01 592.848C1227.01 592.848 1201.41 598.347 1180.12 586.557C1158.84 574.766 1149.92 550.151 1149.92 550.151C1149.92 550.151 1175.51 544.652 1196.8 556.443Z" fill="#6C63FF"/>
</g>
<path opacity="0.3" d="M575.904 327.014C595.786 327.014 611.904 310.896 611.904 291.014C611.904 271.131 595.786 255.014 575.904 255.014C556.021 255.014 539.904 271.131 539.904 291.014C539.904 310.896 556.021 327.014 575.904 327.014Z" fill="#6C63FF"/>
<path d="M575.904 316.014C589.711 316.014 600.904 304.821 600.904 291.014C600.904 277.207 589.711 266.014 575.904 266.014C562.096 266.014 550.904 277.207 550.904 291.014C550.904 304.821 562.096 316.014 575.904 316.014Z" fill="#6C63FF"/>
<path opacity="0.3" d="M1030.28 193.185C1050.16 193.185 1066.28 177.067 1066.28 157.185C1066.28 137.303 1050.16 121.185 1030.28 121.185C1010.4 121.185 994.279 137.303 994.279 157.185C994.279 177.067 1010.4 193.185 1030.28 193.185Z" fill="#6C63FF"/>
<path d="M1030.28 182.185C1044.09 182.185 1055.28 170.992 1055.28 157.185C1055.28 143.378 1044.09 132.185 1030.28 132.185C1016.47 132.185 1005.28 143.378 1005.28 157.185C1005.28 170.992 1016.47 182.185 1030.28 182.185Z" fill="#6C63FF"/>
<path opacity="0.3" d="M1039.9 568.014C1059.79 568.014 1075.9 551.896 1075.9 532.014C1075.9 512.131 1059.79 496.014 1039.9 496.014C1020.02 496.014 1003.9 512.131 1003.9 532.014C1003.9 551.896 1020.02 568.014 1039.9 568.014Z" fill="#6C63FF"/>
<path d="M1039.9 557.014C1053.71 557.014 1064.9 545.821 1064.9 532.014C1064.9 518.207 1053.71 507.014 1039.9 507.014C1026.1 507.014 1014.9 518.207 1014.9 532.014C1014.9 545.821 1026.1 557.014 1039.9 557.014Z" fill="#6C63FF"/>
<defs>
<filter id="filter0_d" x="230.996" y="0" width="1000.21" height="617.297" filterUnits="userSpaceOnUse" color-interpolation-filters="sRGB">
<feFlood flood-opacity="0" result="BackgroundImageFix"/>
<feColorMatrix in="SourceAlpha" type="matrix" values="0 0 0 0 0 0 0 0 0 0 0 0 0 0 0 0 0 0 127 0"/>
<feOffset dy="4"/>
<feGaussianBlur stdDeviation="2"/>
<feColorMatrix type="matrix" values="0 0 0 0 0 0 0 0 0 0 0 0 0 0 0 0 0 0 0.25 0"/>
<feBlend mode="normal" in2="BackgroundImageFix" result="effect1_dropShadow"/>
<feBlend mode="normal" in="SourceGraphic" in2="effect1_dropShadow" result="shape"/>
</filter>
<linearGradient id="paint0_linear" x1="767.5" y1="772" x2="767.5" y2="434" gradientUnits="userSpaceOnUse">
<stop stop-color="#575A89"/>
<stop offset="1" stop-color="#3F3D56" stop-opacity="0.63"/>
</linearGradient>
</defs>
</svg>
