<svg width="684" height="394" viewBox="0 0 684 394" fill="none" xmlns="http://www.w3.org/2000/svg">
<rect x="102.616" y="16.8538" width="510.575" height="240.947" fill="#F2F2F2"/>
<path d="M344.135 394C531.837 394 684 385.17 684 374.277C684 363.384 531.837 354.554 344.135 354.554C156.433 354.554 4.27075 363.384 4.27075 374.277C4.27075 385.17 156.433 394 344.135 394Z" fill="#DDDDDD"/>
<path d="M613.188 0H102.614V16.39H613.188V0Z" fill="#3F3D56"/>
<path d="M116.277 12.1952C118.599 12.1952 120.481 10.2961 120.481 7.95342C120.481 5.61072 118.599 3.71159 116.277 3.71159C113.955 3.71159 112.073 5.61072 112.073 7.95342C112.073 10.2961 113.955 12.1952 116.277 12.1952Z" fill="#CAC7F6"/>
<path d="M129.94 12.1952C132.261 12.1952 134.144 10.2961 134.144 7.95342C134.144 5.61072 132.261 3.71159 129.94 3.71159C127.618 3.71159 125.736 5.61072 125.736 7.95342C125.736 10.2961 127.618 12.1952 129.94 12.1952Z" fill="#CAC7F6"/>
<path d="M143.603 12.1952C145.924 12.1952 147.806 10.2961 147.806 7.95342C147.806 5.61072 145.924 3.71159 143.603 3.71159C141.281 3.71159 139.399 5.61072 139.399 7.95342C139.399 10.2961 141.281 12.1952 143.603 12.1952Z" fill="#CAC7F6"/>
<path d="M102.976 259.222L102.614 259.535V370.099H613.188V175.89L607.103 176.356L102.976 259.222Z" fill="#3F3D56"/>
<path d="M282.039 109.637H139.461V115.438H282.039V109.637Z" fill="#3F3D56"/>
<path d="M282.039 122.399H139.461V128.2H282.039V122.399Z" fill="#3F3D56"/>
<path d="M187.754 135.161H139.461V140.962H187.754V135.161Z" fill="#3F3D56"/>
<path d="M572.799 270.685H430.221V276.486H572.799V270.685Z" fill="#F2F2F2"/>
<path d="M572.799 283.447H430.221V289.248H572.799V283.447Z" fill="#F2F2F2"/>
<path d="M478.514 296.209H430.221V302.01H478.514V296.209Z" fill="#F2F2F2"/>
<path d="M234.77 176.037H186.478V187.154H234.77V176.037Z" fill="#3F3D56"/>
<path d="M521.818 326.473H473.526V337.59H521.818V326.473Z" fill="#F2F2F2"/>
<path d="M50.0019 68.2648L63.7515 68.8028L64.437 50.9654L50.6874 50.4274L50.0019 68.2648Z" fill="#6C63FF"/>
<path d="M112.712 112.898C112.712 112.898 131.753 103.718 131.448 111.646C131.144 119.574 112.255 124.79 112.255 124.79L112.712 112.898Z" fill="#FFB9B9"/>
<path d="M102.265 179.976C102.265 179.976 111.249 202.162 114.568 218.171C117.887 234.18 122.942 256.212 116.44 271.837C109.937 287.462 91.4516 333.384 91.2611 338.339C91.0707 343.294 92.8445 348.326 88.9161 348.172C84.9876 348.018 63.6096 341.227 62.7417 338.216C61.8738 335.204 70.0354 327.584 70.0354 327.584L90.189 263.863L69.1618 222.349L53.995 284.281L51.0244 361.576C51.0244 361.576 36.445 357.036 34.3284 360.923C34.3284 360.923 27.7964 351.735 26.9666 347.733C26.1368 343.731 30.0514 267.464 30.0514 267.464C30.0514 267.464 16.6688 180.597 27.4721 181.02C38.2754 181.442 80.5906 155.309 102.265 179.976Z" fill="#2F2E41"/>
<path d="M89.0683 344.208C89.0683 344.208 99.0337 366.432 99.9778 367.461C100.922 368.491 107.416 378.669 102.505 378.477C97.5946 378.285 85.9996 372.869 77.4653 364.596C68.9309 356.322 57.6787 341.987 58.6989 341.035C59.7191 340.082 66.7081 337.378 66.7081 337.378L89.0683 344.208Z" fill="#2F2E41"/>
<path d="M49.2505 356.544C49.2505 356.544 49.8518 366.493 51.6637 370.533C53.4756 374.574 53.2471 380.52 48.3365 380.328C43.4259 380.135 30.7346 377.654 30.7346 377.654C30.7346 377.654 29.981 371.67 31.0011 370.717C32.0213 369.765 36.3687 359.018 34.5188 355.968C32.6688 352.918 49.2505 356.544 49.2505 356.544Z" fill="#2F2E41"/>
<path d="M41.9857 33.7114C41.9857 33.7114 31.5171 50.1735 27.4363 53.9837C23.3555 57.7939 34.8362 66.1827 34.8362 66.1827L55.3844 68.9717C55.3844 68.9717 55.1259 50.1048 56.1842 48.1613C57.2425 46.2178 41.9857 33.7114 41.9857 33.7114Z" fill="#FFB9B9"/>
<path d="M59.8462 55.2518C59.8462 55.2518 55.613 63.0259 51.6846 62.8722C47.7561 62.7185 27.4363 53.9837 26.5685 50.9724C25.7006 47.9611 19.8379 72.5431 19.8379 72.5431L69.5588 160.832L81.687 152.375L75.8105 100.537L70.9841 72.5594L59.8462 55.2518Z" fill="#6C63FF"/>
<path d="M24.7345 134.267C26.7179 138.453 27.9566 142.819 27.7848 147.288C27.7772 147.487 27.7696 147.685 27.7521 147.883C27.2816 157.054 23.933 167.662 22.7317 175.376C21.86 180.909 22.108 184.948 25.3174 185.898C33.0982 188.187 24.1829 189.823 54.2858 199.933C84.3886 210.043 89.642 201.317 89.7181 199.335C89.7943 197.353 85.455 182.296 86.4752 181.343C87.4954 180.391 100.75 193.812 104.755 191.983C108.759 190.155 105.212 180.092 105.212 180.092C105.212 180.092 96.1902 158.897 96.3806 153.942C96.571 148.987 82.7152 125.619 82.7152 125.619L73.2911 63.7176C73.2911 63.7176 69.6673 55.6361 64.7948 54.453C59.9223 53.2699 55.8796 56.0891 55.8796 56.0891L64.0331 74.2724L72.6356 106.368L71.1965 118.221C71.1965 118.221 61.193 96.9878 54.6228 88.791C48.0527 80.5943 34.0446 61.1895 34.0446 61.1895C34.0446 61.1895 30.7741 50.0551 33.243 46.7277C35.7122 43.3905 22.9447 42.8909 17.5009 56.5723C14.6157 63.8235 9.93138 74.6366 6.99692 84.7044C4.38205 93.6235 3.14687 101.961 5.73745 106.727C9.69687 114.008 19.6568 123.578 24.7345 134.267Z" fill="#575A89"/>
<path opacity="0.1" d="M5.73745 106.727C9.69692 114.008 19.6569 123.578 24.7345 134.267C26.0607 129.446 27.6787 124.458 27.6787 124.458C27.6787 124.458 33.8841 90.9569 15.5286 82.2991C12.4872 82.0023 9.44539 82.8599 6.99693 84.7044C4.38205 93.6235 3.14687 101.961 5.73745 106.727Z" fill="black"/>
<path d="M78.6044 104.616L94.166 109.195L115.773 110.04L117.995 128.984L82.4867 131.565C82.4867 131.565 73.6177 106.406 78.6044 104.616Z" fill="#575A89"/>
<path d="M53.2292 168.311C53.2292 168.311 74.0474 171.796 69.2958 178.117C64.5443 184.438 46.1019 177.793 46.1019 177.793L53.2292 168.311Z" fill="#FFB9B9"/>
<path opacity="0.1" d="M27.7522 147.883C27.2816 157.054 23.933 167.662 22.7317 175.376C29.3636 181.709 35.6701 187.295 38.0468 187.388C42.9574 187.58 50.8524 186.897 53.7607 188.003C56.669 189.109 58.3747 170.319 58.3747 170.319C58.3747 170.319 56.639 164.297 48.8963 161.016C43.6701 158.797 33.6524 152.778 27.7522 147.883Z" fill="black"/>
<path d="M15.7571 76.3533C15.7571 76.3533 -0.862749 73.7181 0.0351119 101.542C0.932973 129.366 -1.71678 147.127 4.96761 152.35C11.652 157.574 33.3647 181.25 38.2753 181.442C43.1859 181.635 51.0809 180.951 53.9892 182.057C56.8974 183.164 58.6031 164.374 58.6031 164.374C58.6031 164.374 56.8674 158.351 49.1247 155.071C41.3821 151.79 23.1408 140.16 23.2931 136.196C23.4455 132.232 27.9071 118.512 27.9071 118.512C27.9071 118.512 34.1126 85.0112 15.7571 76.3533Z" fill="#575A89"/>
<path d="M56.6413 58.0874C68.5832 58.0874 78.2641 48.3193 78.2641 36.2697C78.2641 24.2202 68.5832 14.452 56.6413 14.452C44.6993 14.452 35.0185 24.2202 35.0185 36.2697C35.0185 48.3193 44.6993 58.0874 56.6413 58.0874Z" fill="#FFB9B9"/>
<path d="M71.2004 4.99865C71.7219 5.45205 72.3465 5.7683 73.0185 5.91923C73.3558 5.97991 73.7032 5.90347 73.9849 5.70659C74.2666 5.50971 74.4596 5.20838 74.5219 4.86839C75.0166 5.90359 75.5748 7.00691 76.5848 7.53809C77.5949 8.06928 79.1567 7.62386 79.3023 6.48402C79.4498 7.34948 79.8292 8.15768 80.3996 8.82102C81.0262 9.42391 82.1627 9.57609 82.7098 8.89894C82.2675 11.338 82.5405 13.8464 82.4016 16.322C82.2627 18.7976 81.6084 21.4221 79.7547 23.05C77.0514 25.4241 72.9862 24.8382 69.4301 24.3884C68.8923 24.2745 68.3344 24.3053 67.8121 24.4777C66.4806 25.0501 66.541 26.9203 66.5231 28.3806C66.4145 30.9427 65.4095 33.3831 63.6866 35.2684C61.9637 37.1537 59.6343 38.3619 57.1122 38.6785C55.7007 38.8984 54.2605 38.5437 53.1081 37.6925C52.0984 36.829 51.5827 35.4216 50.4258 34.7729C48.5438 33.7177 46.2614 35.2566 44.8855 36.9274C43.5095 38.5983 42.1534 40.6536 40.0219 40.9594C37.2028 41.3639 35.0557 38.4651 34.0022 35.7958C32.5489 32.0547 31.8526 28.0577 31.9544 24.0407C32.0562 20.0237 32.9541 16.068 34.5951 12.4067C40.4814 -0.540219 60.5892 -2.58802 71.2004 4.99865Z" fill="#2F2E41"/>
<path d="M590.259 351.913C597.874 365.017 613.233 370.205 613.233 370.205C613.233 370.205 616.245 354.147 608.63 341.043C601.015 327.94 585.656 322.752 585.656 322.752C585.656 322.752 582.644 338.809 590.259 351.913Z" fill="#F2F2F2"/>
<path d="M595.011 347.339C608.181 354.699 613.698 370.064 613.698 370.064C613.698 370.064 597.863 373.497 584.693 366.137C571.523 358.777 566.006 343.412 566.006 343.412C566.006 343.412 581.841 339.98 595.011 347.339Z" fill="#6C63FF"/>
<path opacity="0.3" d="M210.896 204.127C223.196 204.127 233.167 194.066 233.167 181.655C233.167 169.244 223.196 159.183 210.896 159.183C198.596 159.183 188.625 169.244 188.625 181.655C188.625 194.066 198.596 204.127 210.896 204.127Z" fill="#6C63FF"/>
<path d="M210.896 197.26C219.438 197.26 226.362 190.274 226.362 181.655C226.362 173.036 219.438 166.05 210.896 166.05C202.355 166.05 195.43 173.036 195.43 181.655C195.43 190.274 202.355 197.26 210.896 197.26Z" fill="#6C63FF"/>
<path opacity="0.3" d="M491.99 120.589C504.29 120.589 514.261 110.528 514.261 98.1172C514.261 85.7065 504.29 75.6455 491.99 75.6455C479.69 75.6455 469.719 85.7065 469.719 98.1172C469.719 110.528 479.69 120.589 491.99 120.589Z" fill="#6C63FF"/>
<path d="M491.99 113.723C500.532 113.723 507.456 106.736 507.456 98.1172C507.456 89.4986 500.532 82.5119 491.99 82.5119C483.448 82.5119 476.524 89.4986 476.524 98.1172C476.524 106.736 483.448 113.723 491.99 113.723Z" fill="#6C63FF"/>
<path opacity="0.3" d="M497.944 354.562C510.244 354.562 520.215 344.501 520.215 332.091C520.215 319.68 510.244 309.619 497.944 309.619C485.644 309.619 475.673 319.68 475.673 332.091C475.673 344.501 485.644 354.562 497.944 354.562Z" fill="#6C63FF"/>
<path d="M497.945 347.696C506.486 347.696 513.411 340.709 513.411 332.091C513.411 323.472 506.486 316.485 497.945 316.485C489.403 316.485 482.479 323.472 482.479 332.091C482.479 340.709 489.403 347.696 497.945 347.696Z" fill="#6C63FF"/>
</svg>
