<svg width="2101" height="1361" viewBox="0 0 2101 1361" fill="none" xmlns="http://www.w3.org/2000/svg">
<g clip-path="url(#clip0)">
<path d="M1306.33 886.936V1189.7L1363.76 1272.23L1368.13 1278.51H1594.75L1599.33 886.936H1306.33Z" fill="#E6E6E6"/>
<path opacity="0.5" d="M1306.33 886.936V1189.7L1363.76 1272.23L1367.28 886.936H1306.33Z" fill="#3F3D56"/>
<path d="M759.237 878.861V1181.62L701.804 1264.16L697.433 1270.43H470.815L466.236 878.861H759.237Z" fill="#E6E6E6"/>
<path opacity="0.5" d="M759.238 878.861V1181.62L701.804 1264.16L698.279 878.861H759.238Z" fill="#93919E"/>
<path d="M1668 872.807V890.972H436.478V864.732L550.931 812.253H1567.28L1668 872.807Z" fill="#E6E6E6"/>
<path opacity="0.1" d="M1668 872.807V890.972H436.478V864.732L1668 872.807Z" fill="#93919E"/>
<path d="M612.738 963.635H557.799L534.908 949.506H637.917L612.738 963.635Z" fill="#3F3D56"/>
<path d="M612.738 1022.17H557.799L534.908 1008.04H637.917L612.738 1022.17Z" fill="#3F3D56"/>
<path d="M612.738 1104.93H557.799L534.908 1090.8H637.917L612.738 1104.93Z" fill="#3F3D56"/>
<path d="M612.738 1187.68H557.799L534.908 1173.55H637.917L612.738 1187.68Z" fill="#3F3D56"/>
<path d="M1452.83 971.708H1507.77L1530.66 957.58H1427.65L1452.83 971.708Z" fill="#3F3D56"/>
<path d="M1452.83 1030.24H1507.77L1530.66 1016.11H1427.65L1452.83 1030.24Z" fill="#3F3D56"/>
<path d="M1452.83 1113H1507.77L1530.66 1098.87H1427.65L1452.83 1113Z" fill="#3F3D56"/>
<path d="M1452.83 1195.75H1507.77L1530.66 1181.62H1427.65L1452.83 1195.75Z" fill="#3F3D56"/>
<path d="M1490.24 462.138H1027.74C1025.44 462.138 1023.17 462.537 1021.04 463.312C1018.92 464.087 1016.99 465.223 1015.37 466.655C1013.74 468.087 1012.46 469.788 1011.58 471.659C1010.7 473.53 1010.25 475.536 1010.25 477.561V752.277C1010.25 754.302 1010.7 756.308 1011.58 758.179C1012.46 760.051 1013.74 761.751 1015.37 763.183C1016.99 764.615 1018.92 765.751 1021.04 766.526C1023.17 767.301 1025.44 767.7 1027.74 767.7H1203.31L1196.73 804.73C1196.73 804.73 1159.14 822.338 1185.57 822.856C1212 823.374 1336.52 822.856 1336.52 822.856C1336.52 822.856 1360.6 822.856 1322.42 804.212L1316.23 767.7H1490.24C1492.54 767.7 1494.81 767.301 1496.93 766.526C1499.05 765.751 1500.98 764.615 1502.61 763.183C1504.23 761.751 1505.52 760.051 1506.4 758.179C1507.28 756.308 1507.73 754.302 1507.73 752.277V477.561C1507.73 475.536 1507.28 473.53 1506.4 471.659C1505.52 469.788 1504.23 468.087 1502.61 466.655C1500.98 465.223 1499.05 464.087 1496.93 463.312C1494.81 462.537 1492.54 462.138 1490.24 462.138V462.138Z" fill="#3F3D56"/>
<path d="M1490.99 478.452H1026.99V707.364H1490.99V478.452Z" fill="#F2F2F2"/>
<path d="M1258.99 473.791C1260.61 473.791 1261.93 472.632 1261.93 471.202C1261.93 469.771 1260.61 468.612 1258.99 468.612C1257.37 468.612 1256.05 469.771 1256.05 471.202C1256.05 472.632 1257.37 473.791 1258.99 473.791Z" fill="#F2F2F2"/>
<path d="M1258.99 756.565C1265.15 756.565 1270.15 752.159 1270.15 746.725C1270.15 741.29 1265.15 736.885 1258.99 736.885C1252.82 736.885 1247.83 741.29 1247.83 746.725C1247.83 752.159 1252.82 756.565 1258.99 756.565Z" fill="#F2F2F2"/>
<path d="M1241.6 850.823V856.003H925.606V851.859L926.041 850.823L933.829 832.179H1235.14L1241.6 850.823Z" fill="#3F3D56"/>
<path d="M1363.2 845.753C1362.63 847.923 1360.45 850.212 1355.54 852.377C1337.92 860.145 1302.1 850.305 1302.1 850.305C1302.1 850.305 1274.49 846.162 1274.49 835.286C1275.26 834.818 1276.07 834.394 1276.91 834.017C1284.32 830.561 1308.88 822.033 1352.43 834.378C1355.64 835.266 1358.51 836.922 1360.71 839.162C1361.69 840.009 1362.42 841.047 1362.86 842.193C1363.29 843.339 1363.41 844.559 1363.2 845.753Z" fill="#3F3D56"/>
<path opacity="0.1" d="M1363.2 845.753C1341.64 853.039 1322.41 853.583 1302.68 841.501C1295.22 836.637 1286.19 834.014 1276.91 834.017C1284.32 830.561 1308.88 822.033 1352.43 834.378C1355.64 835.266 1358.51 836.922 1360.71 839.162C1361.69 840.009 1362.42 841.047 1362.86 842.193C1363.29 843.339 1363.41 844.559 1363.2 845.753Z" fill="black"/>
<path d="M1336.16 841.501C1340.38 841.501 1343.8 840.573 1343.8 839.429C1343.8 838.285 1340.38 837.358 1336.16 837.358C1331.94 837.358 1328.53 838.285 1328.53 839.429C1328.53 840.573 1331.94 841.501 1336.16 841.501Z" fill="#F2F2F2"/>
<path opacity="0.1" d="M1241.6 850.823V856.003H925.606V851.859L926.041 850.823H1241.6Z" fill="black"/>
<path d="M523.696 265C520.489 264.768 517.278 265.401 514.488 266.814C511.749 268.468 510.022 271.366 508.259 274.063C501.521 284.498 492.398 293.584 481.469 300.747C473.508 305.89 463.388 312.301 464.75 321.782C465.468 324.913 466.78 327.915 468.63 330.661C475.973 343.733 496.013 353.834 494.042 368.75C501.338 357.98 491.579 352.654 498.875 341.884C502.35 336.755 508.386 330.965 513.632 334.186C515.388 335.265 516.542 337.199 518.37 338.145C522.734 340.403 527.377 336.087 531.24 333.029C544.561 322.485 563.504 325.247 580.08 328.532C587.905 330.083 596.501 332.118 601.127 338.713C607.209 347.384 595.348 356.749 592.351 366.552C592.107 367.388 592.095 368.263 592.318 369.103C592.54 369.943 592.99 370.723 593.629 371.377C594.268 372.03 595.077 372.537 595.987 372.855C596.897 373.173 597.88 373.291 598.853 373.201C603.827 372.768 609.719 372.413 610.013 370.489C616.271 370.685 623.938 370.06 626.62 364.315C627.439 362.041 627.872 359.674 627.905 357.289C628.889 347.637 633.535 338.832 636.612 329.647C639.69 320.461 641.028 309.696 635.834 301.551C633.981 298.842 631.688 296.385 629.03 294.259C599.558 269.11 560.808 264.963 523.696 265Z" fill="#2F2E41"/>
<path d="M500.452 387.59C500.452 387.59 506.861 434.688 483.359 438.456C459.857 442.224 504.725 506.278 504.725 506.278L611.553 517.582L585.914 442.224C585.914 442.224 568.822 436.572 579.505 398.893C590.187 361.214 500.452 387.59 500.452 387.59Z" fill="#FFB8B8"/>
<path d="M435.286 1196.74L443.833 1300.36H488.7L475.882 1196.74H435.286Z" fill="#FFB8B8"/>
<path d="M764.317 1000.81L770.726 1087.47L819.869 1068.64L800.638 997.046L764.317 1000.81Z" fill="#FFB8B8"/>
<path d="M403.238 801.115C403.238 801.115 405.374 910.384 418.194 946.179C431.013 981.974 428.877 983.858 426.74 989.51C424.604 995.162 422.467 991.394 422.467 1000.81C422.467 1010.23 418.194 1159.07 422.467 1172.25C426.74 1185.44 409.648 1208.05 422.467 1209.93C435.286 1211.82 495.11 1209.93 497.247 1198.63C499.383 1187.32 480.154 1183.56 488.701 1176.02C497.247 1168.48 510.066 1014 510.066 1014L539.978 906.616L595.529 850.098H713.04L749.362 974.438C749.362 974.438 734.406 1010.23 745.088 1010.23C755.771 1010.23 819.868 1021.54 819.868 980.09C819.868 938.643 798.503 816.187 794.23 812.419C789.956 808.651 796.366 795.464 789.956 789.812C783.547 784.16 708.767 744.597 680.992 737.061C653.216 729.526 614.252 720.557 614.252 720.557L403.238 801.115Z" fill="#2F2E41"/>
<path d="M819.868 1053.56C819.868 1053.56 787.82 1044.14 772.864 1072.4C757.908 1100.66 764.318 1108.2 764.318 1108.2C764.318 1108.2 813.459 1123.27 822.005 1115.73C825.723 1112.46 837.53 1111.32 849.684 1111.08C868.194 1110.71 873.119 1087.62 855.637 1082.24C855.115 1082.08 854.587 1081.94 854.053 1081.82C836.961 1078.06 819.868 1053.56 819.868 1053.56Z" fill="#2F2E41"/>
<path d="M548.524 418.675C583.924 418.675 612.621 393.371 612.621 362.156C612.621 330.942 583.924 305.638 548.524 305.638C513.125 305.638 484.427 330.942 484.427 362.156C484.427 393.371 513.125 418.675 548.524 418.675Z" fill="#FFB8B8"/>
<path d="M465.198 462.005C465.198 462.005 569.89 480.845 595.529 450.702C621.168 420.559 631.85 535.479 631.85 535.479L644.67 656.052L625.441 721.99C625.441 721.99 525.022 793.58 492.974 799.231C460.925 804.883 411.784 808.651 411.784 808.651C411.784 808.651 426.74 599.533 426.74 595.765C426.74 591.998 465.198 462.005 465.198 462.005Z" fill="#6C63FF"/>
<path d="M497.038 426.673C497.038 426.673 473.745 414.907 467.335 426.21C460.925 437.514 401.101 465.773 394.692 465.773C388.282 465.773 407.511 622.141 398.965 640.98C390.419 659.82 349.824 797.348 373.326 808.651C396.828 819.955 379.736 797.348 403.238 825.607C426.74 853.866 542.115 853.866 548.524 842.562C554.934 831.259 497.247 746.481 507.93 667.355C518.613 588.23 535.705 478.961 520.749 463.889C505.793 448.818 497.038 426.673 497.038 426.673Z" fill="#2F2E41"/>
<path d="M574.163 439.398L577.139 430.367C577.139 430.367 666.036 456.354 670.309 473.309C674.582 490.265 672.445 608.953 657.489 618.373C642.533 627.793 621.168 642.864 636.124 665.471C651.08 688.079 668.172 712.57 680.992 714.454C693.811 716.338 717.313 729.526 710.903 742.713C704.494 755.901 627.577 731.409 627.577 731.409C627.577 731.409 576.3 697.498 578.436 644.748C580.573 591.997 574.163 439.398 574.163 439.398Z" fill="#2F2E41"/>
<path d="M648.943 661.703L597.665 746.481C597.665 746.481 522.886 814.303 565.617 821.839C608.348 829.375 631.85 759.669 631.85 759.669L687.401 689.963L648.943 661.703Z" fill="#FFB8B8"/>
<path d="M526.819 279.788C524.235 279.619 521.647 280.062 519.323 281.07C517.221 282.424 515.489 284.174 514.252 286.194C508.554 293.753 501.125 300.177 492.444 305.054C485.963 308.688 477.725 313.22 478.834 319.921C479.435 322.168 480.507 324.296 481.992 326.197C487.991 335.529 490.379 346.33 488.795 356.966L506.613 334.129C509.442 330.504 514.355 326.412 518.626 328.688C520.056 329.451 520.995 330.818 522.483 331.487C526.036 333.083 529.815 330.032 532.96 327.87C543.803 320.418 559.224 322.37 572.717 324.692C579.088 325.788 586.085 327.227 589.851 331.888C596.109 339.634 589.574 350.827 593.226 359.776C594.249 359.144 595.117 358.339 595.78 357.406C596.442 356.474 596.886 355.433 597.084 354.347C602.178 354.486 608.42 354.044 610.603 349.983C611.267 348.391 611.62 346.712 611.649 345.017C612.45 338.195 616.232 331.972 618.737 325.48C621.242 318.987 622.332 311.379 618.104 305.622C616.557 303.672 614.69 301.935 612.565 300.468C588.573 282.693 557.029 279.762 526.819 279.788Z" fill="#2F2E41"/>
<path d="M648.943 465.773L668.849 470.432C668.849 470.432 715.176 575.042 704.494 646.632C693.811 718.222 687.401 703.15 687.401 703.15C687.401 703.15 670.309 669.239 631.85 676.775L648.943 465.773Z" fill="#2F2E41"/>
<path d="M438.246 1286.67C433.094 1292.84 434.127 1301.67 429.563 1308.19C425.607 1313.84 418.152 1316.81 413.203 1321.82C411.624 1323.48 410.217 1325.27 408.997 1327.16C404.407 1333.93 400.676 1342.62 405.197 1349.44C408.834 1354.92 416.478 1357.07 423.488 1358.53C432.349 1360.37 441.556 1361.85 450.519 1360.44C459.482 1359.03 468.242 1354.19 471.438 1346.67C472.066 1344.78 472.813 1342.92 473.675 1341.11C478.533 1332.67 493.771 1332.58 498.743 1324.2C502.222 1318.33 499.024 1311.24 495.827 1305.25L486.062 1286.96C482.821 1280.89 469.685 1284.38 462.836 1282.93C453.905 1281.03 444.672 1278.94 438.246 1286.67Z" fill="#2F2E41"/>
<path d="M366.916 699.382L456.652 821.839C456.652 821.839 512.203 884.009 529.295 855.75C546.388 827.491 469.471 780.392 469.471 780.392L411.784 686.195L366.916 699.382Z" fill="#FFB8B8"/>
<path d="M411.784 469.541L394.692 465.773C394.692 465.773 360.507 475.193 351.96 514.756C343.414 554.319 349.824 712.57 360.507 714.454C371.189 716.338 413.269 686.899 420.005 693.141C426.74 699.382 405.374 667.355 411.784 650.4C418.194 633.444 411.784 469.541 411.784 469.541Z" fill="#2F2E41"/>
<path d="M1215.07 553.635H1159.85V565.357H1215.07V553.635Z" fill="#6C63FF"/>
<path d="M1406.3 553.635H1386.87V565.357H1406.3V553.635Z" fill="#6C63FF"/>
<path d="M1445.16 553.635H1425.73V565.357H1445.16V553.635Z" fill="#6C63FF"/>
<path d="M1366.42 553.635H1234.5V565.357H1366.42V553.635Z" fill="#6C63FF"/>
<path d="M1145.53 629.379H1090.31V641.101H1145.53V629.379Z" fill="#6C63FF"/>
<path d="M1336.76 629.379H1317.33V641.101H1336.76V629.379Z" fill="#6C63FF"/>
<path d="M1375.62 629.379H1356.19V641.101H1375.62V629.379Z" fill="#6C63FF"/>
<path d="M1296.88 629.379H1164.96V641.101H1296.88V629.379Z" fill="#6C63FF"/>
<path d="M1373.58 579.784H1318.36V591.506H1373.58V579.784Z" fill="#6C63FF"/>
<path d="M1448.23 579.784H1393.01V591.506H1448.23V579.784Z" fill="#6C63FF"/>
<path d="M1109.74 579.784H1090.31V591.506H1109.74V579.784Z" fill="#6C63FF"/>
<path d="M1148.6 579.784H1129.17V591.506H1148.6V579.784Z" fill="#6C63FF"/>
<path d="M1299.95 579.784H1168.03V591.506H1299.95V579.784Z" fill="#6C63FF"/>
<path d="M1259.04 605.032H1203.82V616.755H1259.04V605.032Z" fill="#6C63FF"/>
<path d="M1184.39 605.032H1129.17V616.755H1184.39V605.032Z" fill="#6C63FF"/>
<path d="M1109.74 605.032H1090.31V616.755H1109.74V605.032Z" fill="#6C63FF"/>
<path d="M1448.23 605.032H1428.8V616.755H1448.23V605.032Z" fill="#6C63FF"/>
<path d="M1409.37 605.032H1277.45V616.755H1409.37V605.032Z" fill="#6C63FF"/>
<g filter="url(#filter0_d)">
<path d="M916.567 745.233L915.818 750.61L903.661 837.5C871.843 856.91 847.075 839.939 846.859 839.228L831.423 752.77L830.546 747.849L916.567 745.233Z" fill="#3F3D56"/>
<path opacity="0.1" d="M916.567 745.233L915.818 750.61C879.971 769.026 841.709 756.703 831.423 752.77L830.546 747.849L916.567 745.233Z" fill="black"/>
<path d="M828.749 743.205L828.754 751.009C828.754 751.009 876.197 772.481 918.916 748.268L918.912 740.463L828.749 743.205Z" fill="#6C63FF"/>
<path d="M834.256 732.728C834.256 732.728 832.879 738.037 828.747 738.624L828.751 745.265L918.913 742.524L918.909 736.569C918.909 736.569 913.396 735.589 914.21 730.296L834.256 732.728Z" fill="#6C63FF"/>
<path d="M873.558 741.842C896.018 741.159 914.223 736.245 914.219 730.866C914.216 725.487 896.006 721.68 873.546 722.363C851.087 723.046 832.882 727.96 832.885 733.339C832.889 738.718 851.098 742.525 873.558 741.842Z" fill="#6C63FF"/>
<path opacity="0.1" d="M873.558 741.842C896.018 741.159 914.223 736.245 914.219 730.866C914.216 725.487 896.006 721.68 873.546 722.363C851.087 723.046 832.882 727.96 832.885 733.339C832.889 738.718 851.098 742.525 873.558 741.842Z" fill="black"/>
<path opacity="0.1" d="M909.251 730.447C909.253 734.35 893.833 738.018 874.796 738.597L873.782 738.628C860.999 738.939 849.953 737.792 844.317 735.746C841.771 734.825 840.324 733.737 840.323 732.543C840.322 730.561 844.266 728.646 850.651 727.164C858.586 725.481 866.693 724.551 874.816 724.392C893.825 723.814 909.248 726.522 909.251 730.447Z" fill="black"/>
<path opacity="0.1" d="M837.76 733.167C837.271 733.096 836.623 733.257 836.53 733.665C836.517 733.872 836.583 734.075 836.718 734.245C837.795 735.627 839.36 736.692 841.209 737.3C841.525 737.438 841.873 737.521 842.233 737.542C842.42 737.555 842.61 737.521 842.778 737.443C842.945 737.366 843.083 737.249 843.172 737.108C843.224 736.989 843.245 736.862 843.233 736.737C843.222 736.613 843.178 736.492 843.106 736.384C842.818 735.971 842.42 735.62 841.94 735.358C840.681 734.577 839.394 733.344 837.76 733.167Z" fill="black"/>
<path d="M874.974 815.459C888.372 815.051 899.228 805.696 899.221 794.562C899.214 783.429 888.347 774.734 874.949 775.141C861.551 775.548 850.696 784.904 850.702 796.037C850.709 807.171 861.576 815.866 874.974 815.459Z" fill="#6C63FF"/>
<path opacity="0.1" d="M873.782 738.628C860.999 738.938 849.953 737.791 844.317 735.746L850.623 727.134L873.782 738.628Z" fill="black"/>
</g>
</g>
<path opacity="0.1" d="M2101 726.325C2101.11 786.992 2084.52 846.524 2053.03 898.415C2053.03 961.877 2023.39 1019.4 1975.31 1061.32C1963.27 1071.8 1950.31 1081.17 1936.59 1089.33C1936.04 1089.68 1935.47 1090.01 1934.9 1090.34C1933.87 1090.94 1932.85 1091.55 1931.8 1092.17L1930.83 1092.74C1926.44 1095.22 1921.95 1097.6 1917.38 1099.84C1875.24 1120.52 1828.88 1131.18 1781.92 1131H398.841C387.822 1131 376.901 1130.56 366.078 1129.68C327.614 1126.65 289.818 1117.92 253.939 1103.76C246.935 1101 240.067 1098.03 233.333 1094.85C230.125 1093.35 226.948 1091.8 223.801 1090.21C221.836 1089.22 219.871 1088.19 217.924 1087.17C206.112 1080.9 194.67 1073.96 183.654 1066.38C173.587 1059.5 163.9 1052.09 154.637 1044.16C92.1397 990.638 53.4806 916.563 53.4806 834.825C18.4498 780.984 -0.131856 718.134 0.00070433 653.936C0.00070433 472.204 145.528 324.878 325.068 324.878C330.577 324.878 336.087 325.043 341.597 325.337C342.386 325.337 343.158 325.337 343.947 325.447C374.213 273.955 414.672 226.643 463.322 184.995C595.994 71.5271 789.895 0 1005.89 0C1187.38 0 1353.27 50.5016 1480.34 133.944C1528.49 106.775 1582.88 92.5332 1638.19 92.6077C1817.69 92.6077 1963.26 239.933 1963.26 421.665C1963.23 433.164 1962.62 444.654 1961.42 456.091C2004.69 486.663 2039.96 527.174 2064.25 574.206C2088.54 621.238 2101.15 673.411 2101 726.325V726.325Z" fill="url(#paint0_linear)"/>
<path opacity="0.1" d="M1616.97 421.405V401.735C1632.38 395.489 1645.14 384.089 1653.06 369.486C1660.98 354.884 1663.56 337.988 1660.38 321.691C1657.19 305.395 1648.42 290.711 1635.58 280.155C1622.74 269.599 1606.62 263.827 1589.99 263.827C1573.35 263.827 1557.23 269.599 1544.39 280.155C1531.55 290.711 1522.79 305.395 1519.6 321.691C1516.41 337.988 1519 354.884 1526.92 369.486C1534.83 384.089 1547.59 395.489 1563.01 401.735V421.405C1545.04 426.39 1528.8 436.243 1516.1 449.873C1502.65 429.727 1482.39 415.076 1459.02 408.591V388.903C1474.43 382.657 1487.19 371.257 1495.11 356.654C1503.03 342.052 1505.62 325.156 1502.43 308.86C1499.24 292.563 1490.48 277.88 1477.63 267.323C1464.79 256.767 1448.68 250.995 1432.04 250.995C1415.4 250.995 1399.29 256.767 1386.44 267.323C1373.6 277.88 1364.84 292.563 1361.65 308.86C1358.46 325.156 1361.05 342.052 1368.97 356.654C1376.89 371.257 1389.65 382.657 1405.06 388.903V408.573C1389.08 413 1374.44 421.285 1362.43 432.697C1349.03 414.741 1330.03 401.741 1308.42 395.741V376.071C1323.83 369.825 1336.59 358.425 1344.51 343.823C1352.43 329.22 1355.02 312.324 1351.83 296.028C1348.64 279.731 1339.87 265.048 1327.03 254.492C1314.19 243.935 1298.07 238.163 1281.44 238.163C1264.8 238.163 1248.68 243.935 1235.84 254.492C1223 265.048 1214.24 279.731 1211.05 296.028C1207.86 312.324 1210.45 329.22 1218.37 343.823C1226.29 358.425 1239.04 369.825 1254.46 376.071V395.741C1236.07 400.855 1219.52 411.062 1206.71 425.181C1201 410.567 1191.95 397.482 1180.3 386.962C1168.64 376.443 1154.68 368.779 1139.54 364.578V344.908C1154.96 338.662 1167.72 327.262 1175.63 312.66C1183.55 298.057 1186.14 281.161 1182.95 264.865C1179.76 248.568 1171 233.885 1158.16 223.329C1145.32 212.772 1129.2 207 1112.56 207C1095.93 207 1079.81 212.772 1066.97 223.329C1054.13 233.885 1045.36 248.568 1042.17 264.865C1038.98 281.161 1041.57 298.057 1049.49 312.66C1057.41 327.262 1070.17 338.662 1085.58 344.908V364.578C1065.9 370.047 1048.35 381.344 1035.23 396.978C1022.11 412.611 1014.06 431.847 1012.12 452.146C1002.85 445.724 992.561 440.908 981.687 437.903V418.233C997.101 411.987 1009.86 400.587 1017.78 385.984C1025.7 371.382 1028.29 354.486 1025.1 338.19C1021.91 321.893 1013.14 307.209 1000.3 296.653C987.461 286.097 971.343 280.325 954.707 280.325C938.071 280.325 921.953 286.097 909.112 296.653C896.27 307.209 887.505 321.893 884.317 338.19C881.129 354.486 883.716 371.382 891.635 385.984C899.555 400.587 912.313 411.987 927.727 418.233V437.903C914.009 441.716 901.25 448.372 890.282 457.437C879.314 466.502 870.383 477.772 864.071 490.513C855.561 485.055 846.273 480.914 836.522 478.231V458.562C851.936 452.316 864.695 440.915 872.614 426.313C880.533 411.711 883.12 394.815 879.932 378.518C876.744 362.222 867.979 347.538 855.138 336.982C842.297 326.426 826.178 320.653 809.542 320.653C792.906 320.653 776.788 326.426 763.947 336.982C751.106 347.538 742.341 362.222 739.152 378.518C735.964 394.815 738.551 411.711 746.47 426.313C754.39 440.915 767.149 452.316 782.563 458.562V478.231C773.361 480.765 764.572 484.605 756.464 489.633C750.11 477.101 741.208 466.029 730.327 457.122C719.446 448.215 706.824 441.669 693.267 437.903V418.233C708.681 411.987 721.44 400.587 729.359 385.984C737.278 371.382 739.865 354.486 736.677 338.19C733.489 321.893 724.724 307.209 711.883 296.653C699.042 286.097 682.923 280.325 666.287 280.325C649.652 280.325 633.533 286.097 620.692 296.653C607.851 307.209 599.086 321.893 595.898 338.19C592.709 354.486 595.296 371.382 603.216 385.984C611.135 400.587 623.894 411.987 639.308 418.233V437.903C624.717 441.954 611.223 449.222 599.821 459.171C588.419 469.121 579.4 481.497 573.429 495.389C563.158 487.52 551.467 481.695 538.993 478.231V458.562C554.407 452.316 567.165 440.915 575.085 426.313C583.004 411.711 585.591 394.815 582.403 378.518C579.215 362.222 570.45 347.538 557.608 336.982C544.767 326.426 528.649 320.653 512.013 320.653C495.377 320.653 479.259 326.426 466.418 336.982C453.576 347.538 444.811 362.222 441.623 378.518C438.435 394.815 441.022 411.711 448.941 426.313C456.861 440.915 469.619 452.316 485.033 458.562V478.231C463.748 484.119 444.983 496.809 431.612 514.356C418.241 531.903 411.001 553.341 411 575.387V1030H612.916V989.671H708.419V1030H910.445V989.671H1055.54V916.347H1180.43V947.51H1331.03V960.341H1488.97V973.173H1691V518.56C1691 496.514 1683.76 475.076 1670.39 457.529C1657.02 439.982 1638.25 427.293 1616.97 421.405V421.405Z" fill="url(#paint1_linear)"/>
<defs>
<filter id="filter0_d" x="824.747" y="722.283" width="98.1699" height="132.491" filterUnits="userSpaceOnUse" color-interpolation-filters="sRGB">
<feFlood flood-opacity="0" result="BackgroundImageFix"/>
<feColorMatrix in="SourceAlpha" type="matrix" values="0 0 0 0 0 0 0 0 0 0 0 0 0 0 0 0 0 0 127 0"/>
<feOffset dy="4"/>
<feGaussianBlur stdDeviation="2"/>
<feColorMatrix type="matrix" values="0 0 0 0 0 0 0 0 0 0 0 0 0 0 0 0 0 0 0.25 0"/>
<feBlend mode="normal" in2="BackgroundImageFix" result="effect1_dropShadow"/>
<feBlend mode="normal" in="SourceGraphic" in2="effect1_dropShadow" result="shape"/>
</filter>
<linearGradient id="paint0_linear" x1="1050.5" y1="1.43942e-06" x2="1076.5" y2="1157.5" gradientUnits="userSpaceOnUse">
<stop stop-color="#0F00FF"/>
<stop offset="1" stop-color="#6C63FF" stop-opacity="0"/>
</linearGradient>
<linearGradient id="paint1_linear" x1="1051" y1="207" x2="1051" y2="1030" gradientUnits="userSpaceOnUse">
<stop stop-color="#6C63FF"/>
<stop offset="1" stop-color="#6C63FF" stop-opacity="0"/>
</linearGradient>
<clipPath id="clip0">
<rect width="1320" height="1096" fill="white" transform="translate(348 265)"/>
</clipPath>
</defs>
</svg>
